<?xml version="1.0" encoding="UTF-8"?><svg id="Layer_1" xmlns="http://www.w3.org/2000/svg" viewBox="0 0 485.27 136.13"><defs><style>.cls-1{fill:#231f20;}.cls-2{fill:#c4b681;}.cls-3{fill:#004e38;}</style></defs><path class="cls-1" d="M108.26,60.34c-.78-.34-.93-.59-.93-1.64,0-2.7.2-5.59.25-6.38.06-.71.2-1.23.58-1.23.43,0,.5.4.5.81,0,.63.18,1.64.43,2.49,1.06,3.58,3.93,4.87,6.95,4.87,4.34,0,6.51-2.95,6.51-5.52,0-2.39-.74-4.61-4.78-7.78l-2.22-1.74c-5.34-4.17-7.18-7.56-7.18-11.49,0-5.35,4.47-9.18,11.21-9.18,3.15,0,5.19.48,6.47.82.41.1.69.25.69.59,0,.62-.21,2.04-.21,5.82,0,1.05-.14,1.45-.54,1.45-.34,0-.49-.29-.49-.86,0-.46-.22-1.96-1.24-3.22-.73-.91-2.13-2.39-5.3-2.39-3.58,0-5.78,2.1-5.78,5.02,0,2.23,1.11,3.93,5.15,7l1.35.99c5.87,4.43,7.97,7.78,7.97,12.39,0,2.81-1.07,6.15-4.57,8.43-2.42,1.56-5.13,2.01-7.7,2.01-2.83,0-5.01-.34-7.1-1.27Z"/><path class="cls-1" d="M140.63,48.27c-.23,0-.34.09-.44.38l-2.63,6.93c-.48,1.23-.71,2.4-.71,2.98,0,.86.44,1.49,1.93,1.49h.74c.58,0,.71.11.71.39,0,.38-.29.49-.81.49-1.55,0-3.64-.15-5.15-.15-.53,0-3.2.15-5.72.15-.62,0-.92-.11-.92-.49,0-.28.2-.39.57-.39.43,0,1.12-.05,1.5-.1,2.24-.26,3.16-1.94,4.12-4.37l12.19-30.47c.57-1.41.88-1.93,1.36-1.93.43,0,.73.43,1.22,1.56,1.16,2.65,8.92,22.46,12.04,29.83,1.84,4.35,3.24,5.03,4.26,5.28.73.15,1.48.2,2.05.2.39,0,.63.05.63.39,0,.38-.45.49-2.25.49s-5.28,0-9.15-.11c-.89-.05-1.46-.05-1.46-.38,0-.28.2-.39.67-.44.34-.09.68-.52.45-1.12l-3.89-10.28c-.11-.25-.24-.34-.49-.34h-10.82ZM150.53,45.85c.24,0,.28-.16.24-.32l-4.37-11.99c-.04-.19-.1-.43-.23-.43-.16,0-.25.24-.3.43l-4.45,11.95c-.07.19,0,.35.18.35h8.94Z"/><path class="cls-1" d="M170.96,56.31c-4.77-4.16-6.03-9.62-6.03-14.31,0-3.3,1.03-9.04,5.69-13.3,3.5-3.2,8.1-5.14,15.33-5.14,3.01,0,4.81.21,7.05.48,1.84.25,3.4.7,4.84.83.54.03.74.28.74.56,0,.41-.16.99-.25,2.7-.09,1.57-.04,4.26-.14,5.23-.06.72-.15,1.13-.6,1.13-.37,0-.47-.41-.47-1.07-.04-1.5-.68-3.21-1.89-4.48-1.62-1.68-5.38-3-9.86-3-4.21,0-6.99,1.09-9.12,3-3.55,3.25-4.47,7.87-4.47,12.58,0,11.56,8.78,17.29,15.3,17.29,4.32,0,6.95-.48,8.87-2.74.82-.91,1.46-2.32,1.63-3.2.16-.78.26-.97.65-.97.34,0,.43.35.43.73,0,.57-.6,4.8-1.09,6.45-.23.83-.42,1.08-1.26,1.43-1.93.77-5.59,1.11-8.71,1.11-6.65,0-12.25-1.46-16.66-5.3Z"/><path class="cls-1" d="M209.54,38.32c0-7.39,0-8.73-.1-10.3-.11-1.66-.48-2.43-2.09-2.77-.39-.09-1.22-.14-1.88-.14-.53,0-.84-.11-.84-.45,0-.32.34-.43,1.07-.43,2.57,0,5.64.15,6.65.15,1.65,0,5.34-.15,6.84-.15,3.04,0,6.31.31,8.91,2.11,1.38.91,3.32,3.37,3.32,6.62,0,3.59-1.51,6.89-6.41,10.87,4.32,5.46,7.68,9.76,10.54,12.78,2.71,2.8,4.7,3.14,5.43,3.3.54.09.97.14,1.36.14s.58.14.58.39c0,.38-.35.49-.92.49h-4.61c-2.71,0-3.92-.25-5.2-.93-2.08-1.12-3.92-3.39-6.63-7.13-1.94-2.67-4.17-5.97-4.81-6.68-.24-.31-.53-.34-.87-.34l-4.23-.11c-.23,0-.38.11-.38.39v.68c0,4.52,0,8.34.23,10.38.14,1.39.43,2.49,1.9,2.67.72.09,1.79.2,2.37.2.4,0,.58.14.58.39,0,.34-.33.49-.96.49-2.82,0-6.4-.15-7.12-.15-.92,0-3.99.15-5.92.15-.64,0-.98-.15-.98-.49,0-.25.19-.39.77-.39.73,0,1.34-.1,1.73-.2.99-.17,1.23-1.27,1.43-2.67.23-2.04.23-5.86.23-10.35v-8.52ZM215.27,42.16c0,.53.09.71.43.85,1.03.34,2.49.5,3.69.5,1.94,0,2.57-.2,3.43-.82,1.46-1.09,2.88-3.32,2.88-7.29,0-6.91-4.56-8.89-7.41-8.89-1.23,0-2.11.05-2.6.18-.34.09-.43.31-.43.68v14.78Z"/><path class="cls-1" d="M249.58,48.27c-.26,0-.36.09-.44.38l-2.63,6.93c-.49,1.23-.74,2.4-.74,2.98,0,.86.44,1.49,1.94,1.49h.74c.58,0,.72.11.72.39,0,.38-.28.49-.82.49-1.54,0-3.64-.15-5.13-.15-.54,0-3.21.15-5.74.15-.62,0-.92-.11-.92-.49,0-.28.18-.39.59-.39s1.11-.05,1.49-.1c2.23-.26,3.16-1.94,4.12-4.37l12.19-30.47c.57-1.41.86-1.93,1.35-1.93.42,0,.73.43,1.2,1.56,1.17,2.65,8.94,22.46,12.04,29.83,1.85,4.35,3.26,5.03,4.27,5.28.73.15,1.46.2,2.05.2.38,0,.63.05.63.39,0,.38-.45.49-2.24.49s-5.28,0-9.17-.11c-.88-.05-1.46-.05-1.46-.38,0-.28.2-.39.68-.44.34-.09.69-.52.44-1.12l-3.88-10.28c-.11-.25-.23-.34-.48-.34h-10.81ZM259.48,45.85c.25,0,.27-.16.25-.32l-4.38-11.99c-.07-.19-.1-.43-.24-.43-.15,0-.26.24-.3.43l-4.48,11.95c-.04.19,0,.35.2.35h8.94Z"/><path class="cls-1" d="M285.82,24.43c.15-.82.43-1.25.82-1.25s.68.24,1.3,1.48l13.26,27.38,13.21-27.7c.39-.78.62-1.16,1.06-1.16s.73.47.87,1.48l4.42,30c.44,3.05.92,4.47,2.39,4.91,1.39.43,2.38.48,2.99.48.45,0,.79.05.79.33,0,.4-.57.56-1.26.56-1.22,0-7.92-.15-9.86-.31-1.12-.08-1.4-.25-1.4-.53,0-.25.19-.39.54-.53.28-.09.43-.75.23-2.11l-2.9-21.34h-.19l-10.58,22.03c-1.12,2.29-1.35,2.73-1.8,2.73s-.92-.97-1.69-2.43c-1.18-2.23-5.02-9.67-5.59-11.01-.44-1.03-3.35-7.14-5.06-10.78h-.2l-2.5,19.32c-.1.87-.15,1.49-.15,2.26,0,.95.64,1.36,1.47,1.59.85.18,1.54.23,2.03.23.39,0,.73.11.73.33,0,.45-.45.56-1.15.56-2.04,0-4.24-.15-5.11-.15-.92,0-3.25.15-4.81.15-.49,0-.86-.11-.86-.56,0-.22.28-.33.76-.33.4,0,.73,0,1.47-.14,1.37-.31,1.74-2.2,1.99-3.85l4.81-31.63Z"/><path class="cls-1" d="M336.09,38.32c0-7.39,0-8.73-.09-10.3-.1-1.66-.5-2.43-2.09-2.77-.38-.09-1.23-.14-1.88-.14-.55,0-.85-.11-.85-.45,0-.32.34-.43,1.1-.43,1.29,0,2.7.06,3.91.06,1.26.05,2.38.09,3.06.09,1.56,0,11.21,0,12.13-.04.92-.11,1.7-.21,2.08-.3.22-.04.53-.19.77-.19s.3.19.3.43c0,.34-.24.91-.38,3.16-.06.48-.17,2.6-.28,3.2-.03.26-.13.54-.47.54s-.45-.25-.45-.68c0-.33-.04-1.16-.29-1.74-.33-.88-.81-1.47-3.24-1.74-.83-.11-5.91-.22-6.89-.22-.25,0-.34.16-.34.49v12.29c0,.33.05.52.34.52,1.07,0,6.65,0,7.76-.08,1.17-.11,1.9-.26,2.33-.74.32-.38.53-.61.78-.61.2,0,.34.09.34.37,0,.3-.19,1.06-.39,3.56-.06.96-.19,2.91-.19,3.26s0,.89-.43.89c-.34,0-.44-.18-.44-.43-.05-.46-.05-1.11-.2-1.73-.24-.99-.92-1.71-2.71-1.89-.92-.1-5.73-.16-6.88-.16-.24,0-.3.2-.3.48v3.83c0,1.66-.06,6.14,0,7.55.09,3.32.87,4.06,5.82,4.06,1.26,0,3.3,0,4.57-.57,1.26-.58,1.84-1.62,2.18-3.61.1-.53.19-.73.54-.73.38,0,.38.39.38.88,0,1.12-.38,4.4-.64,5.4-.31,1.25-.76,1.25-2.62,1.25-3.62,0-6.31-.11-8.4-.14-2.08-.11-3.58-.15-5.04-.15-.53,0-1.61,0-2.77.05-1.11,0-2.37.11-3.35.11-.61,0-.95-.15-.95-.49,0-.25.16-.39.74-.39.74,0,1.32-.1,1.76-.2.97-.17,1.21-1.27,1.41-2.67.24-2.04.24-5.86.24-10.35v-8.52Z"/><path class="cls-1" d="M370.94,54.33c.09,3.78.73,5.04,1.69,5.37.82.3,1.74.34,2.53.34.52,0,.83.11.83.39,0,.38-.45.49-1.13.49-3.14,0-5.1-.15-6.02-.15-.44,0-2.71.15-5.24.15-.61,0-1.06-.05-1.06-.49,0-.28.29-.39.77-.39.64,0,1.5-.05,2.19-.23,1.26-.41,1.46-1.81,1.5-6.05l.44-28.7c0-.97.14-1.65.64-1.65.53,0,.97.62,1.78,1.49.6.63,7.97,8.54,15.04,15.58,3.31,3.28,9.86,10.3,10.7,11.09h.25l-.5-21.81c-.03-2.97-.49-3.88-1.64-4.36-.74-.3-1.89-.3-2.6-.3-.57,0-.74-.14-.74-.45,0-.37.5-.43,1.25-.43,2.52,0,4.85.15,5.86.15.55,0,2.39-.15,4.77-.15.63,0,1.12.06,1.12.43,0,.31-.29.45-.87.45-.51,0-.88,0-1.46.14-1.35.4-1.76,1.43-1.8,4.13l-.54,30.62c0,1.07-.19,1.51-.64,1.51-.52,0-1.1-.55-1.64-1.07-3.07-2.92-9.26-9.27-14.32-14.25-5.29-5.27-10.68-11.32-11.56-12.23h-.13l.53,20.37Z"/><path class="cls-1" d="M422.07,26.95l-7.22.19c-2.81.1-3.99.33-4.71,1.42-.49.72-.73,1.3-.82,1.71-.11.37-.26.57-.54.57-.34,0-.43-.23-.43-.79,0-.77.92-5.17,1.01-5.57.15-.62.29-.92.58-.92.39,0,.88.48,2.1.57,1.41.16,3.25.25,4.85.25h19.22c1.55,0,2.61-.15,3.33-.25.76-.13,1.13-.24,1.33-.24.33,0,.38.31.38,1.02,0,1.02-.14,4.37-.14,5.63-.07.5-.15.78-.44.78-.37,0-.48-.24-.55-.98l-.04-.53c-.09-1.25-1.41-2.62-5.72-2.71l-6.12-.15v19.88c0,4.49,0,8.31.23,10.42.16,1.33.45,2.43,1.9,2.6.68.09,1.75.2,2.47.2.54,0,.77.14.77.39,0,.34-.37.49-.92.49-3.19,0-6.26-.15-7.61-.15-1.12,0-4.16.15-6.12.15-.62,0-.97-.15-.97-.49,0-.25.2-.39.79-.39.72,0,1.3-.1,1.75-.2.97-.17,1.25-1.27,1.4-2.67.24-2.04.24-5.86.24-10.35v-19.88Z"/><path class="cls-1" d="M445.61,42.59c0-8.3,5.49-19.04,20.04-19.04,12.09,0,19.62,7.05,19.62,18.16s-7.78,19.9-20.09,19.9c-13.92,0-19.57-10.44-19.57-19.02ZM478.45,43.51c0-10.88-6.26-17.63-14.21-17.63-5.57,0-11.93,3.12-11.93,15.19,0,10.1,5.58,18.11,14.9,18.11,3.4,0,11.24-1.66,11.24-15.67Z"/><path class="cls-1" d="M107.3,115.34c-.78-.34-.94-.58-.94-1.66,0-2.65.21-5.58.25-6.35.05-.75.21-1.26.6-1.26.44,0,.49.42.49.82,0,.63.19,1.66.43,2.48,1.08,3.6,3.93,4.9,6.95,4.9,4.36,0,6.5-2.98,6.5-5.55,0-2.38-.75-4.61-4.77-7.74l-2.23-1.77c-5.34-4.16-7.18-7.56-7.18-11.5,0-5.32,4.45-9.17,11.2-9.17,3.15,0,5.2.5,6.46.85.42.09.67.23.67.57,0,.63-.19,2.03-.19,5.81,0,1.07-.13,1.47-.53,1.47-.33,0-.49-.3-.49-.88,0-.43-.23-1.94-1.26-3.19-.71-.93-2.14-2.38-5.28-2.38-3.59,0-5.77,2.07-5.77,4.99,0,2.25,1.1,3.93,5.13,7l1.36,1.02c5.86,4.4,7.94,7.78,7.94,12.38,0,2.83-1.04,6.15-4.54,8.43-2.44,1.56-5.16,1.99-7.72,1.99-2.82,0-5-.3-7.08-1.26Z"/><path class="cls-1" d="M145.15,81.95l-7.24.2c-2.82.09-3.97.35-4.7,1.39-.5.74-.73,1.32-.82,1.7-.1.4-.25.59-.54.59-.34,0-.45-.25-.45-.78,0-.77.93-5.2,1.03-5.56.15-.65.28-.94.59-.94.38,0,.88.5,2.07.59,1.43.14,3.26.25,4.86.25h19.21c1.56,0,2.62-.16,3.36-.25.73-.14,1.13-.25,1.3-.25.35,0,.41.29.41,1.02,0,1.02-.15,4.37-.15,5.63-.06.48-.15.78-.43.78-.4,0-.51-.25-.55-.99l-.05-.52c-.08-1.27-1.39-2.62-5.74-2.72l-6.09-.14v19.9c0,4.46,0,8.3.23,10.38.14,1.36.45,2.43,1.91,2.63.67.1,1.73.19,2.47.19.53,0,.76.15.76.38,0,.34-.39.48-.92.48-3.19,0-6.26-.13-7.61-.13-1.11,0-4.17.13-6.12.13-.62,0-.96-.13-.96-.48,0-.23.2-.38.78-.38.72,0,1.3-.09,1.74-.19.99-.2,1.26-1.27,1.41-2.66.25-2.05.25-5.89.25-10.35v-19.9Z"/><path class="cls-1" d="M173.62,103.25c-.24,0-.33.1-.42.4l-2.62,6.93c-.49,1.21-.72,2.39-.72,2.96,0,.88.42,1.5,1.93,1.5h.72c.6,0,.75.09.75.38,0,.39-.3.48-.83.48-1.56,0-3.66-.13-5.13-.13-.54,0-3.21.13-5.74.13-.63,0-.92-.08-.92-.48,0-.29.18-.38.57-.38.45,0,1.12-.05,1.5-.09,2.23-.3,3.15-1.95,4.13-4.37l12.17-30.48c.59-1.39.88-1.95,1.36-1.95.44,0,.73.45,1.22,1.56,1.15,2.68,8.94,22.48,12.02,29.86,1.88,4.36,3.26,5.03,4.28,5.28.72.14,1.45.19,2.05.19.36,0,.61.05.61.38,0,.39-.43.48-2.22.48s-5.29,0-9.17-.08c-.87-.05-1.47-.05-1.47-.39,0-.29.21-.38.7-.43.34-.11.68-.54.42-1.12l-3.88-10.3c-.1-.24-.22-.33-.48-.33h-10.83ZM183.53,100.83c.25,0,.28-.13.25-.28l-4.38-11.99c-.04-.19-.1-.43-.25-.43s-.26.24-.29.43l-4.47,11.93c-.04.2,0,.34.2.34h8.94Z"/><path class="cls-1" d="M210.42,81.95l-7.23.2c-2.82.09-3.99.35-4.73,1.39-.47.74-.71,1.32-.82,1.7-.09.4-.23.59-.53.59-.34,0-.43-.25-.43-.78,0-.77.9-5.2,1.02-5.56.14-.65.29-.94.59-.94.38,0,.87.5,2.08.59,1.41.14,3.24.25,4.84.25h19.23c1.55,0,2.61-.16,3.35-.25.72-.14,1.12-.25,1.31-.25.35,0,.39.29.39,1.02,0,1.02-.15,4.37-.15,5.63-.04.48-.15.78-.43.78-.39,0-.5-.25-.54-.99l-.05-.52c-.11-1.27-1.4-2.62-5.74-2.72l-6.09-.14v19.9c0,4.46,0,8.3.24,10.38.13,1.36.44,2.43,1.9,2.63.68.1,1.74.19,2.46.19.53,0,.77.15.77.38,0,.34-.38.48-.93.48-3.19,0-6.26-.13-7.61-.13-1.11,0-4.16.13-6.1.13-.64,0-.99-.13-.99-.48,0-.23.21-.38.79-.38.72,0,1.31-.09,1.74-.19.98-.2,1.27-1.27,1.41-2.66.25-2.05.25-5.89.25-10.35v-19.9Z"/><path class="cls-1" d="M239.87,93.31c0-7.38,0-8.74-.1-10.3-.11-1.64-.47-2.41-2.09-2.75-.39-.09-1.21-.16-1.89-.16-.53,0-.81-.09-.81-.42,0-.34.33-.45,1.06-.45,1.32,0,2.72.05,3.93.05,1.26.06,2.38.11,3.05.11,1.57,0,11.24,0,12.15-.05.92-.1,1.7-.2,2.09-.3.24-.05.55-.21.77-.21.24,0,.28.21.28.45,0,.34-.24.93-.38,3.17-.05.46-.12,2.59-.24,3.19-.05.23-.16.53-.5.53s-.42-.25-.42-.68c0-.34-.05-1.17-.3-1.75-.34-.88-.81-1.46-3.25-1.75-.81-.07-5.92-.18-6.89-.18-.24,0-.33.14-.33.48v12.28c0,.35.05.53.33.53,1.08,0,6.66,0,7.78-.1,1.16-.08,1.89-.24,2.33-.72.34-.39.52-.64.76-.64.19,0,.34.1.34.4,0,.28-.18,1.06-.38,3.53-.04.99-.19,2.91-.19,3.25,0,.37,0,.93-.43.93-.35,0-.44-.18-.44-.47-.05-.47-.05-1.11-.19-1.73-.23-.96-.92-1.7-2.71-1.89-.94-.09-5.73-.14-6.9-.14-.25,0-.29.2-.29.48v3.84c0,1.66-.04,6.1,0,7.53.09,3.34.88,4.05,5.83,4.05,1.25,0,3.3,0,4.55-.57,1.26-.57,1.85-1.59,2.18-3.6.1-.54.2-.71.53-.71.4,0,.4.37.4.85,0,1.12-.4,4.43-.64,5.39-.35,1.26-.78,1.26-2.62,1.26-3.65,0-6.31-.09-8.39-.16-2.09-.08-3.59-.13-5.05-.13-.54,0-1.59,0-2.76.05-1.12,0-2.38.08-3.34.08-.64,0-.97-.13-.97-.48,0-.23.19-.38.77-.38.73,0,1.32-.09,1.75-.19.97-.2,1.21-1.27,1.4-2.66.25-2.05.25-5.89.25-10.35v-8.54Z"/><path class="cls-3" d="M87.93,15.93v98.28c-25.59-10.69-47.66,14.19-85.82,0V15.93S21.2,0,44.49,0s43.44,15.93,43.44,15.93Z"/><path class="cls-2" d="M35.08,46.13c-7.99-9.32-7.02-19.64,2.39-24.55-4.33,1.66-7.09,4.1-8.92,6.4-6.45,8.07-6.25,19.27,4.89,29.91,6.95,6.64,15.32,15.95,15.79,21.87.17,2.09.68,8.55-7.74,8.67-3.76.05-8.65-3.33-8.65-3.33,0,0,4.55,5.51,11.34,5.17,9.32-.51,13.95-7.84,13.78-14.13-.38-12.52-17.73-23.99-22.89-30.02Z"/><path class="cls-2" d="M56.82,46.82c-8.39-7.57-15.43-13.98-15.43-21.38,0-11.43,11.67-8.76,11.67-8.76-8.14-3.84-20.18,3.34-20.18,12.3,0,11.3,11.7,18.74,18.18,25.36,11.07,11.4,13.86,22.56,2.83,30.32,4.24-1.61,8.08-6.27,9.9-9.88,4.42-8.83,2.9-19.06-6.97-27.96Z"/><path class="cls-2" d="M46.71,83.15c-6.21.39-8.93-7.93-11.78-12.21-2.97-4.45-6.66-6.19-12.5-4.64,6.13,1.86,6.7,10.59,10.1,14.4,4.61,5.13,10.83,6.27,14.19,2.45Z"/><path class="cls-2" d="M43.79,95.19c-5.59,0-8.62-1.26-8.62-1.26l1.49,5.06s1.6,1.13,7.1,1.13,7.67-1.13,7.67-1.13l1.53-5.19s-3.62,1.39-9.18,1.39Z"/><path class="cls-3" d="M88.95,120.03s-11.38-7.37-36.94.19c-19.61,5.79-39.21,4.58-52.01-1.55,0,0,12.48,13.5,45.16,8.06,16.23-2.7,24.92-9.2,43.79-6.7Z"/><path class="cls-3" d="M88.95,128.14s-11.38-7.36-36.94.2c-19.61,5.79-39.21,4.55-52.01-1.54,0,0,12.48,13.47,45.16,8.04,16.23-2.71,24.92-9.2,43.79-6.7Z"/><path class="cls-2" d="M35.66,94.28s3.43,1.08,8.39,1.05c4.96-.04,8.5-1.05,8.5-1.05l-1.2,4.78-3.16.64-3.44,17.01-1.31.24-3.14-17.25-3.06-.64-1.58-4.78Z"/></svg>